Alien vs. Predator -Requiem*2007* (Theatrical Cut)[1080p.DTS-HD HR 5.1.AC3.BluRay.x264-LEON 345](01:33:45)
 ===============================================

produkcja: USA
 gatunek: Akcja, Sci-Fi
 data premiery: 2007-12-28 (Polska), 2007-12-25 (┼Üwiat)
 re┼╝yseria: Colin Strause, Greg Strause
 scenariusz: Shane Salerno
 zdj─Öcia: Daniel Pearl
 muzyka: Brian Tyler


 Opis:
 Niewielkie, zapomniane przez Boga i ludzi miasteczko staje si─Ö aren─à walki pomi─Ödzy Obcymi i Predatorami. Ludzie, chc─àc przetrwa─ç t─Ö wojn─Ö, musz─à zapomnie─ç o dawnych animozjach i zjednoczy─ç swoje si┼éy w walce z kosmicznymi drapie┼╝nikami.

 General
 Unique ID                      : 250376349872938696251864016597230806631 (0xBC5CBB201B709A86A6D0416E4207E667)
 Complete name                  : F:FilmyFilmy 3DSzablonWstawkaAVP2_2007_Theatrical.Cut(Leon 345)ALIENS_VS_PREDATOR_2_2007_Theatrical.Cut(Leon 345).mkv
 Format                         : Matroska
 Format version                 : Version 2
 File size                      : 12.0 GiB
 Duration                       : 1h 33mn
 Encoding type                  : 2  pass
 Overall bit rate mode          : Variable
 Overall bit rate               : 18.3 Mbps
 Encoded date                   : UTC 2013-05-07 14:37:59
 Writing application            : mkvmerge v5.7.0 ('The Whirlwind') built on Jul  8 2012 20:08:51
 Writing library                : libebml v1.2.3 + libmatroska v1.3.0

 Video
 ID                             : 1
 Format                         : AVC
 Format/Info                    : Advanced Video Codec
 Format profile                 : High@L4.1
 Format settings, CABAC         : Yes
 Format settings, ReFrames      : 2 frames
 Codec ID                       : V_MPEG4/ISO/AVC
 Duration                       : 1h 33mn
 Bit rate mode                  : Variable
 Bit rate                       : 14.2 Mbps
 Maximum bit rate               : 35.0 Mbps
 Width                          : 1 920 pixels
 Height                         : 1 080 pixels
 Display aspect ratio           : 16:9 (2.39:1)
 Frame rate mode                : Constant
 Frame rate                     : 23.976 fps
 Color space                    : YUV
 Chroma subsampling             : 4:2:0
 Bit depth                      : 8 bits
 Scan type                      : Progressive
 Bits/(Pixel*Frame)             : 0.286
 Stream size                    : 9.08 GiB (76%)
 Title                          : Rip  by Leon 345  encoding  2 pass
 Writing library                : x264 core 130 r2273 b3065e6
 Encoding settings              : cabac=1 / ref=1 / deblock=1:0:0 / analyse=0x3:0x3 / me=dia / subme=1 / psy=1 / psy_rd=1.00:0.00 / mixed_ref=0 / me_range=16 / chroma_me=1 / trellis=0 / 8x8dct=1 / cqm=0 / deadzone=21,11 / fast_pskip=1 / chroma_qp_offset=0 / threads=6 / lookahead_threads=1 / sliced_threads=0 / slices=4 / nr=0 / decimate=1 / interlaced=0 / bluray_compat=1 / constrained_intra=0 / bframes=3 / b_pyramid=0 / b_adapt=1 / b_bias=0 / direct=1 / weightb=1 / open_gop=0 / weightp=1 / keyint=24 / keyint_min=1 / scenecut=40 / intra_refresh=0 / rc_lookahead=0 / rc=2pass / mbtree=0 / bitrate=14217 / ratetol=1.0 / qcomp=0.60 / qpmin=0 / qpmax=69 / qpstep=4 / cplxblur=20.0 / qblur=0.5 / vbv_maxrate=35000 / vbv_bufsize=30000 / nal_hrd=vbr / ip_ratio=1.10 / pb_ratio=1.10 / aq=1:1.00
 Default                        : Yes
 Forced                         : No

 Audio #1
 ID                             : 2
 Format                         : AC-3
 Format/Info                    : Audio Coding 3
 Mode extension                 : CM (complete main)
 Format settings, Endianness    : Big
 Codec ID                       : A_AC3
 Duration                       : 1h 33mn
 Bit rate mode                  : Constant
 Bit rate                       : 448 Kbps
 Channel(s)                     : 6 channels
 Channel positions              : Front: L C R, Side: L R, LFE
 Sampling rate                  : 48.0 KHz
 Bit depth                      : 16 bits
 Compression mode               : Lossy
 Stream size                    : 300 MiB (2%)
 Title                          : AC3  5.1  Lektor  PL
 Language                       : Polish
 Default                        : Yes
 Forced                         : Yes

 Audio #2
 ID                             : 3
 Format                         : AC-3
 Format/Info                    : Audio Coding 3
 Mode extension                 : CM (complete main)
 Format settings, Endianness    : Big
 Codec ID                       : A_AC3
 Duration                       : 1h 33mn
 Bit rate mode                  : Constant
 Bit rate                       : 640 Kbps
 Channel(s)                     : 6 channels
 Channel positions              : Front: L C R, Side: L R, LFE
 Sampling rate                  : 48.0 KHz
 Bit depth                      : 16 bits
 Compression mode               : Lossy
 Stream size                    : 429 MiB (3%)
 Title                          : AC3  5.1  Orginal
 Language                       : English
 Default                        : No
 Forced                         : No

 Audio #3
 ID                             : 4
 Format                         : DTS
 Format/Info                    : Digital Theater Systems
 Format profile                 : HRA / Core
 Mode                           : 16
 Format settings, Endianness    : Big
 Codec ID                       : A_DTS
 Duration                       : 1h 33mn
 Bit rate mode                  : Constant
 Bit rate                       : 3 018 Kbps / 1 509 Kbps
 Channel(s)                     : 6 channels
 Channel positions              : Front: L C R, Side: L R, LFE
 Sampling rate                  : 48.0 KHz
 Bit depth                      : 24 bits
 Compression mode               : Lossy
 Stream size                    : 1.98 GiB (16%)
 Title                          : DTS-HD  HR 5.1 Orginal
 Language                       : English
 Default                        : No
 Forced                         : No

 Text #1
 ID                             : 5
 Format                         : PGS
 Muxing mode                    : zlib
 Codec ID                       : S_HDMV/PGS
 Codec ID/Info                  : The same subtitle format used on BDs/HD-DVDs
 Language                       : Polish
 Default                        : No
 Forced                         : No

 Text #2
 ID                             : 6
 Format                         : PGS
 Muxing mode                    : zlib
 Codec ID                       : S_HDMV/PGS
 Codec ID/Info                  : The same subtitle format used on BDs/HD-DVDs
 Language                       : English
 Default                        : No
 Forced                         : No

 Text #3
 ID                             : 7
 Format                         : UTF-8
 Codec ID                       : S_TEXT/UTF8
 Codec ID/Info                  : UTF-8 Plain Text
 Default                        : Yes
 Forced                         : Yes

 Source [thx]:
 A/V- Aliens vs. Predator Requiem (2007) Blu-ray CEE 1080p AVC DTS 5.1